<?xml version="1.0" encoding="utf-8"?>
<!-- Generator: Adobe Illustrator 16.0.0, SVG Export Plug-In . SVG Version: 6.00 Build 0)  -->
<!DOCTYPE svg PUBLIC "-//W3C//DTD SVG 1.1//EN" "http://www.w3.org/Graphics/SVG/1.1/DTD/svg11.dtd">
<svg version="1.1" id="Layer_1" xmlns="http://www.w3.org/2000/svg" xmlns:xlink="http://www.w3.org/1999/xlink" x="0px" y="0px"
	 width="100px" height="40px" viewBox="0 0 100 40" enable-background="new 0 0 100 40" xml:space="preserve">
<path fill="#010000" d="M97.04,19.256c-0.024-0.082-0.093-0.313-0.466-1.13c-0.178-0.398-4.507-9.979-8.292-12.239
	C87.632,5.5,85.657,4.319,77.387,4.319c-2.456,0-4.331,0.107-4.411,0.112L71.456,4.52l0.008,1.524v0.203l0.031,5.959l0.074,14.273
	c-0.42-0.223-0.888-0.348-1.381-0.348h-0.606V3.355V3.161C69.582,1.418,68.233,0,66.576,0H8.248c-1.66,0-3.01,1.418-3.01,3.161
	v0.194v26.159c0,1.649,1.204,3.001,2.735,3.147c0.045,0.1,0.097,0.2,0.155,0.296c0.572,1.158,1.951,2.416,3.563,2.416h2.779
	C15.396,38.09,18.009,40,21.054,40c3.045,0,5.658-1.91,6.583-4.627h4.347c1.772,0,3.229-1.424,3.688-2.699h5.384
	c0.083,1.471,1.435,2.602,3.146,2.602h0.513C45.587,38.064,48.154,40,51.15,40c3.018,0,5.568-1.949,6.43-4.724h1.638
	c0.564,1.001,1.57,1.657,2.701,1.657h8.271c1.134,0,2.142-0.656,2.707-1.657h3.689c0.899,2.717,3.436,4.625,6.391,4.625
	c2.964,0,5.503-1.913,6.4-4.634c6.3-0.04,6.59-0.19,7.014-0.413c0.824-0.427,1.57-1.231,1.585-6.272
	C97.993,25.65,97.709,21.477,97.04,19.256z"/>
</svg>
